<svg width="35" height="35" viewBox="0 0 35 35" fill="none" xmlns="http://www.w3.org/2000/svg">
<circle cx="17.5" cy="17.5" r="17.5" fill="white"/>
<path d="M22.88 21.8101C25.64 21.8101 27.88 19.5701 27.88 16.8101C27.88 14.0501 25.64 11.8101 22.88 11.8101H11.88" stroke="#292D32" stroke-width="2" stroke-miterlimit="10" stroke-linecap="round" stroke-linejoin="round"/>
<path d="M14.18 14.3099L11.62 11.7499L14.18 9.18994" stroke="#292D32" stroke-width="2" stroke-linecap="round" stroke-linejoin="round"/>
<path d="M10.0802 22.916C10.0802 23.252 9.99752 23.5453 9.83219 23.796C9.66685 24.0467 9.42685 24.2413 9.11219 24.38C8.80285 24.5133 8.42419 24.58 7.97619 24.58C7.77885 24.58 7.58419 24.5667 7.39219 24.54C7.20552 24.5133 7.02419 24.476 6.84819 24.428C6.67752 24.3747 6.51485 24.3107 6.36019 24.236V23.108C6.63219 23.2253 6.91219 23.3347 7.20019 23.436C7.49352 23.532 7.78419 23.58 8.07219 23.58C8.26952 23.58 8.42685 23.5533 8.54419 23.5C8.66685 23.4467 8.75485 23.3747 8.80819 23.284C8.86685 23.1933 8.89619 23.0893 8.89619 22.972C8.89619 22.828 8.84552 22.7053 8.74419 22.604C8.64819 22.5027 8.51752 22.4093 8.35219 22.324C8.18685 22.2333 7.99752 22.1373 7.78419 22.036C7.65085 21.972 7.50685 21.8973 7.35219 21.812C7.19752 21.7213 7.04819 21.612 6.90419 21.484C6.76552 21.3507 6.65085 21.1907 6.56019 21.004C6.46952 20.8173 6.42419 20.5933 6.42419 20.332C6.42419 19.9907 6.50152 19.7 6.65619 19.46C6.81619 19.2147 7.04019 19.028 7.32819 18.9C7.62152 18.772 7.96552 18.708 8.36019 18.708C8.65885 18.708 8.94152 18.7427 9.20819 18.812C9.48019 18.8813 9.76285 18.98 10.0562 19.108L9.66419 20.052C9.40285 19.9453 9.16819 19.8627 8.96019 19.804C8.75219 19.7453 8.53885 19.716 8.32019 19.716C8.17085 19.716 8.04285 19.74 7.93619 19.788C7.82952 19.836 7.74685 19.9027 7.68819 19.988C7.63485 20.0733 7.60819 20.1747 7.60819 20.292C7.60819 20.4253 7.64819 20.54 7.72819 20.636C7.80819 20.7267 7.92819 20.8147 8.08819 20.9C8.24819 20.9853 8.44819 21.0867 8.68819 21.204C8.98152 21.3427 9.22952 21.4867 9.43219 21.636C9.64019 21.7853 9.80019 21.9613 9.91219 22.164C10.0242 22.3667 10.0802 22.6173 10.0802 22.916ZM14.4064 24.5H11.1184V18.788H14.4064V19.78H12.3264V21.036H14.2624V22.028H12.3264V23.5H14.4064V24.5ZM17.795 24.5H16.587V19.796H15.035V18.788H19.347V19.796H17.795V24.5Z" fill="#2C2C2C"/>
</svg>
