<svg width="35" height="35" viewBox="0 0 35 35" fill="none" xmlns="http://www.w3.org/2000/svg">
<circle cx="17.5" cy="17.5" r="17.5" fill="white"/>
<path d="M18.5802 22.916C18.5802 23.252 18.4975 23.5453 18.3322 23.796C18.1669 24.0467 17.9269 24.2413 17.6122 24.38C17.3029 24.5133 16.9242 24.58 16.4762 24.58C16.2789 24.58 16.0842 24.5667 15.8922 24.54C15.7055 24.5133 15.5242 24.476 15.3482 24.428C15.1775 24.3747 15.0149 24.3107 14.8602 24.236V23.108C15.1322 23.2253 15.4122 23.3347 15.7002 23.436C15.9935 23.532 16.2842 23.58 16.5722 23.58C16.7695 23.58 16.9269 23.5533 17.0442 23.5C17.1669 23.4467 17.2549 23.3747 17.3082 23.284C17.3669 23.1933 17.3962 23.0893 17.3962 22.972C17.3962 22.828 17.3455 22.7053 17.2442 22.604C17.1482 22.5027 17.0175 22.4093 16.8522 22.324C16.6869 22.2333 16.4975 22.1373 16.2842 22.036C16.1509 21.972 16.0069 21.8973 15.8522 21.812C15.6975 21.7213 15.5482 21.612 15.4042 21.484C15.2655 21.3507 15.1509 21.1907 15.0602 21.004C14.9695 20.8173 14.9242 20.5933 14.9242 20.332C14.9242 19.9907 15.0015 19.7 15.1562 19.46C15.3162 19.2147 15.5402 19.028 15.8282 18.9C16.1215 18.772 16.4655 18.708 16.8602 18.708C17.1589 18.708 17.4415 18.7427 17.7082 18.812C17.9802 18.8813 18.2629 18.98 18.5562 19.108L18.1642 20.052C17.9029 19.9453 17.6682 19.8627 17.4602 19.804C17.2522 19.7453 17.0389 19.716 16.8202 19.716C16.6709 19.716 16.5429 19.74 16.4362 19.788C16.3295 19.836 16.2469 19.9027 16.1882 19.988C16.1349 20.0733 16.1082 20.1747 16.1082 20.292C16.1082 20.4253 16.1482 20.54 16.2282 20.636C16.3082 20.7267 16.4282 20.8147 16.5882 20.9C16.7482 20.9853 16.9482 21.0867 17.1882 21.204C17.4815 21.3427 17.7295 21.4867 17.9322 21.636C18.1402 21.7853 18.3002 21.9613 18.4122 22.164C18.5242 22.3667 18.5802 22.6173 18.5802 22.916ZM22.9064 24.5H19.6184V18.788H22.9064V19.78H20.8264V21.036H22.7624V22.028H20.8264V23.5H22.9064V24.5ZM26.295 24.5H25.087V19.796H23.535V18.788H27.847V19.796H26.295V24.5Z" fill="#2C2C2C"/>
<path d="M11.12 21.8101C8.36 21.8101 6.12 19.5701 6.12 16.8101C6.12 14.0501 8.36 11.8101 11.12 11.8101H22.12" stroke="#292D32" stroke-width="2" stroke-miterlimit="10" stroke-linecap="round" stroke-linejoin="round"/>
<path d="M19.82 14.3099L22.38 11.7499L19.82 9.18994" stroke="#292D32" stroke-width="2" stroke-linecap="round" stroke-linejoin="round"/>
</svg>
